<?xml version="1.0" standalone="no"?>
<!DOCTYPE svg PUBLIC "-//W3C//DTD SVG 20010904//EN"
 "http://www.w3.org/TR/2001/REC-SVG-20010904/DTD/svg10.dtd">
<svg version="1.0" xmlns="http://www.w3.org/2000/svg"
 width="39.000000pt" height="47.000000pt" viewBox="0 0 39.000000 47.000000"
 preserveAspectRatio="xMidYMid meet">
<metadata>
Created by potrace 1.16, written by Peter Selinger 2001-2019
</metadata>
<g transform="translate(0.000000,47.000000) scale(0.100000,-0.100000)"
fill="#000000" stroke="none">
<path d="M262 459 c-18 -4 -44 -16 -56 -28 l-23 -21 -18 20 c-10 11 -27 20
-37 20 -15 0 -10 -8 22 -38 55 -53 54 -78 -5 -84 -81 -10 -121 -55 -131 -146
-4 -37 0 -57 18 -91 34 -67 66 -85 152 -89 91 -5 155 19 186 70 24 40 27 149
5 188 -8 14 -14 34 -15 46 0 23 -38 63 -78 80 -24 11 -21 12 41 13 50 1 67 5
67 15 0 33 -70 58 -128 45z m56 -165 c39 -22 62 -69 62 -124 0 -97 -65 -154
-180 -154 -78 -1 -123 21 -151 74 -35 64 -16 175 34 202 62 33 181 34 235 2z"/>
</g>
</svg>
